<svg width="1378" height="769" viewBox="0 0 1378 769" fill="none" xmlns="http://www.w3.org/2000/svg">
<mask id="mask0_51_1289" style="mask-type:alpha" maskUnits="userSpaceOnUse" x="-1" y="-1" width="1379" height="770">
<path d="M385.8 245.578C385.8 247.568 385.408 249.538 384.647 251.376C383.885 253.214 382.769 254.884 381.363 256.291C379.956 257.698 378.286 258.814 376.447 259.575C374.609 260.337 372.639 260.729 370.65 260.729C368.66 260.729 366.69 260.337 364.852 259.575C363.014 258.814 361.343 257.698 359.937 256.291C358.53 254.884 357.414 253.214 356.652 251.376C355.891 249.538 355.499 247.568 355.499 245.578C355.499 241.56 357.095 237.706 359.937 234.865C362.778 232.024 366.631 230.427 370.65 230.427C374.668 230.427 378.521 232.024 381.363 234.865C384.204 237.706 385.8 241.56 385.8 245.578Z" fill="white" stroke="white" stroke-width="2.51339" stroke-linecap="round" stroke-linejoin="round"/>
<path d="M384.45 392.232C384.45 394.221 383.66 396.128 382.254 397.534C380.847 398.94 378.94 399.73 376.951 399.73C374.963 399.73 373.056 398.94 371.649 397.534C370.243 396.128 369.453 394.221 369.453 392.232C369.453 390.243 370.243 388.336 371.649 386.93C373.056 385.523 374.963 384.733 376.951 384.733C378.94 384.733 380.847 385.523 382.254 386.93C383.66 388.336 384.45 390.243 384.45 392.232Z" fill="white" stroke="white" stroke-width="1.24393" stroke-linecap="round" stroke-linejoin="round"/>
<path d="M457.292 332.5C457.292 333.485 457.098 334.46 456.721 335.37C456.345 336.28 455.792 337.106 455.096 337.803C454.4 338.499 453.573 339.051 452.663 339.428C451.754 339.805 450.778 339.999 449.794 339.999C448.809 339.999 447.834 339.805 446.924 339.428C446.015 339.051 445.188 338.499 444.492 337.803C443.795 337.106 443.243 336.28 442.866 335.37C442.489 334.46 442.295 333.485 442.295 332.5C442.295 330.512 443.085 328.605 444.492 327.198C445.898 325.792 447.805 325.002 449.794 325.002C451.782 325.002 453.69 325.792 455.096 327.198C456.502 328.605 457.292 330.512 457.292 332.5Z" fill="white" stroke="white" stroke-width="1.24393" stroke-linecap="round" stroke-linejoin="round"/>
<path d="M281.292 499.318C281.292 501.307 280.9 503.277 280.139 505.116C279.378 506.954 278.262 508.624 276.855 510.031C275.448 511.438 273.778 512.554 271.94 513.315C270.101 514.076 268.131 514.468 266.142 514.468C262.124 514.468 258.27 512.872 255.429 510.031C252.587 507.19 250.991 503.336 250.991 499.318C250.991 495.3 252.587 491.446 255.429 488.605C258.27 485.763 262.124 484.167 266.142 484.167C270.16 484.167 274.013 485.763 276.855 488.605C279.696 491.446 281.292 495.3 281.292 499.318Z" fill="white" stroke="white" stroke-width="2.51339" stroke-linecap="round" stroke-linejoin="round"/>
<path d="M608.805 637.057C608.805 641.075 607.209 644.929 604.367 647.77C601.526 650.611 597.673 652.207 593.654 652.207C589.636 652.207 585.783 650.611 582.941 647.77C580.1 644.929 578.504 641.075 578.504 637.057C578.504 633.039 580.1 629.185 582.941 626.344C585.783 623.503 589.636 621.906 593.654 621.906C595.644 621.906 597.614 622.298 599.452 623.06C601.29 623.821 602.961 624.937 604.367 626.344C605.774 627.751 606.89 629.421 607.652 631.259C608.413 633.097 608.805 635.067 608.805 637.057Z" fill="white" stroke="white" stroke-width="2.51339" stroke-linecap="round" stroke-linejoin="round"/>
<path d="M898.057 534.518C898.057 538.536 896.461 542.39 893.619 545.231C890.778 548.072 886.925 549.668 882.906 549.668C878.888 549.668 875.035 548.072 872.193 545.231C869.352 542.39 867.756 538.536 867.756 534.518C867.756 532.528 868.148 530.558 868.909 528.72C869.671 526.882 870.786 525.212 872.193 523.805C873.6 522.398 875.27 521.282 877.109 520.521C878.947 519.759 880.917 519.367 882.906 519.367C884.896 519.367 886.866 519.759 888.704 520.521C890.542 521.282 892.213 522.398 893.619 523.805C895.026 525.212 896.142 526.882 896.904 528.72C897.665 530.558 898.057 532.528 898.057 534.518Z" fill="white" stroke="white" stroke-width="2.51339" stroke-linecap="round" stroke-linejoin="round"/>
<path d="M989.883 171.805C989.883 175.823 988.287 179.677 985.446 182.518C982.604 185.359 978.751 186.956 974.733 186.956C972.743 186.956 970.773 186.564 968.935 185.802C967.097 185.041 965.426 183.925 964.02 182.518C962.613 181.111 961.497 179.441 960.735 177.603C959.974 175.765 959.582 173.795 959.582 171.805C959.582 169.815 959.974 167.845 960.735 166.007C961.497 164.169 962.613 162.499 964.02 161.092C965.426 159.685 967.097 158.569 968.935 157.808C970.773 157.046 972.743 156.654 974.733 156.654C978.751 156.654 982.604 158.251 985.446 161.092C988.287 163.933 989.883 167.787 989.883 171.805Z" fill="white" stroke="white" stroke-width="2.51339" stroke-linecap="round" stroke-linejoin="round"/>
<path d="M645.535 87.6311C645.535 91.6493 643.939 95.5029 641.098 98.3441C638.257 101.185 634.403 102.782 630.385 102.782C628.395 102.782 626.425 102.39 624.587 101.628C622.749 100.867 621.079 99.751 619.672 98.3442C618.265 96.9373 617.149 95.2671 616.388 93.429C615.626 91.5908 615.234 89.6207 615.234 87.6311C615.234 85.6415 615.626 83.6714 616.388 81.8333C617.149 79.9951 618.265 78.3249 619.672 76.9181C621.079 75.5112 622.749 74.3952 624.587 73.6339C626.425 72.8725 628.395 72.4806 630.385 72.4806C634.403 72.4806 638.257 74.0768 641.098 76.9181C643.939 79.7594 645.535 83.613 645.535 87.6311Z" fill="white" stroke="white" stroke-width="2.51339" stroke-linecap="round" stroke-linejoin="round"/>
<path d="M755.727 233.022C755.727 237.041 754.131 240.894 751.289 243.735C748.448 246.577 744.594 248.173 740.576 248.173C736.558 248.173 732.705 246.577 729.863 243.735C727.022 240.894 725.426 237.041 725.426 233.022C725.426 229.004 727.022 225.151 729.863 222.309C732.705 219.468 736.558 217.872 740.576 217.872C742.566 217.872 744.536 218.264 746.374 219.025C748.212 219.786 749.882 220.902 751.289 222.309C752.696 223.716 753.812 225.386 754.574 227.224C755.335 229.063 755.727 231.033 755.727 233.022Z" fill="white" stroke="white" stroke-width="2.51339" stroke-linecap="round" stroke-linejoin="round"/>
<path d="M1124.56 435.04C1124.56 439.058 1122.97 442.911 1120.12 445.753C1117.28 448.594 1113.43 450.19 1109.41 450.19C1105.39 450.19 1101.54 448.594 1098.7 445.753C1095.86 442.911 1094.26 439.058 1094.26 435.04C1094.26 433.05 1094.65 431.08 1095.41 429.242C1096.17 427.404 1097.29 425.733 1098.7 424.327C1100.1 422.92 1101.77 421.804 1103.61 421.042C1105.45 420.281 1107.42 419.889 1109.41 419.889C1113.43 419.889 1117.28 421.485 1120.12 424.327C1122.97 427.168 1124.56 431.021 1124.56 435.04Z" fill="white" stroke="white" stroke-width="2.51339" stroke-linecap="round" stroke-linejoin="round"/>
<path d="M132.84 562.066C132.84 564.054 132.05 565.962 130.644 567.368C129.238 568.774 127.33 569.564 125.342 569.564C123.353 569.564 121.446 568.774 120.039 567.368C118.633 565.962 117.843 564.054 117.843 562.066C117.843 560.077 118.633 558.17 120.039 556.763C121.446 555.357 123.353 554.567 125.342 554.567C127.33 554.567 129.238 555.357 130.644 556.763C132.05 558.17 132.84 560.077 132.84 562.066Z" fill="white" stroke="white" stroke-width="1.24393" stroke-linecap="round" stroke-linejoin="round"/>
<path d="M166.509 393.718C166.509 395.707 165.719 397.614 164.313 399.02C162.907 400.426 161 401.216 159.011 401.216C157.022 401.216 155.115 400.426 153.709 399.02C152.303 397.614 151.513 395.707 151.513 393.718C151.513 391.729 152.303 389.822 153.709 388.416C155.115 387.01 157.022 386.22 159.011 386.22C161 386.22 162.907 387.01 164.313 388.416C165.719 389.822 166.509 391.729 166.509 393.718Z" fill="white" stroke="white" stroke-width="1.24393" stroke-linecap="round" stroke-linejoin="round"/>
<path d="M218.545 670.726C218.545 672.715 217.755 674.622 216.348 676.029C214.942 677.435 213.035 678.225 211.046 678.225C209.058 678.225 207.15 677.435 205.744 676.029C204.338 674.622 203.548 672.715 203.548 670.726C203.548 668.738 204.338 666.831 205.744 665.424C207.15 664.018 209.058 663.228 211.046 663.228C213.035 663.228 214.942 664.018 216.348 665.424C217.755 666.831 218.545 668.738 218.545 670.726Z" fill="white" stroke="white" stroke-width="1.24393" stroke-linecap="round" stroke-linejoin="round"/>
<path d="M77.7443 715.109C77.7443 716.094 77.5503 717.069 77.1735 717.978C76.7967 718.888 76.2443 719.715 75.5481 720.411C74.8518 721.107 74.0252 721.66 73.1154 722.037C72.2057 722.413 71.2306 722.607 70.2459 722.607C69.2612 722.607 68.2862 722.413 67.3764 722.037C66.4667 721.66 65.6401 721.107 64.9438 720.411C64.2475 719.715 63.6952 718.888 63.3183 717.978C62.9415 717.069 62.7476 716.094 62.7476 715.109C62.7476 713.12 63.5376 711.213 64.9438 709.807C66.35 708.401 68.2572 707.611 70.2459 707.611C72.2346 707.611 74.1418 708.401 75.548 709.807C76.9543 711.213 77.7443 713.12 77.7443 715.109Z" fill="white" stroke="white" stroke-width="1.24393" stroke-linecap="round" stroke-linejoin="round"/>
<path d="M210.892 125.892C210.892 127.882 210.5 129.852 209.739 131.69C208.978 133.528 207.862 135.198 206.455 136.605C205.048 138.012 203.378 139.128 201.54 139.889C199.702 140.651 197.731 141.042 195.742 141.042C193.752 141.042 191.782 140.651 189.944 139.889C188.106 139.128 186.436 138.012 185.029 136.605C183.622 135.198 182.506 133.528 181.745 131.69C180.983 129.852 180.591 127.882 180.591 125.892C180.591 121.874 182.188 118.02 185.029 115.179C187.87 112.338 191.724 110.741 195.742 110.741C197.731 110.741 199.702 111.133 201.54 111.895C203.378 112.656 205.048 113.772 206.455 115.179C207.862 116.586 208.978 118.256 209.739 120.094C210.5 121.932 210.892 123.902 210.892 125.892Z" fill="white" stroke="white" stroke-width="2.51339" stroke-linecap="round" stroke-linejoin="round"/>
<path d="M128.249 242.205C128.249 244.194 127.459 246.101 126.052 247.507C124.646 248.913 122.739 249.703 120.75 249.703C118.762 249.703 116.854 248.913 115.448 247.507C114.042 246.101 113.252 244.194 113.252 242.205C113.252 240.216 114.042 238.309 115.448 236.903C116.854 235.497 118.762 234.707 120.75 234.707C122.739 234.707 124.646 235.497 126.052 236.903C127.459 238.309 128.249 240.216 128.249 242.205Z" fill="white" stroke="white" stroke-width="1.24393" stroke-linecap="round" stroke-linejoin="round"/>
<path d="M366.997 50.9007C366.997 52.8894 366.207 54.7966 364.801 56.2028C363.394 57.609 361.487 58.3991 359.498 58.3991C357.51 58.3991 355.602 57.609 354.196 56.2028C352.79 54.7966 352 52.8894 352 50.9007C352 48.912 352.79 47.0048 354.196 45.5986C355.602 44.1924 357.51 43.4023 359.498 43.4023C361.487 43.4023 363.394 44.1924 364.801 45.5986C366.207 47.0048 366.997 48.912 366.997 50.9007Z" fill="white" stroke="white" stroke-width="1.24393" stroke-linecap="round" stroke-linejoin="round"/>
<path d="M484.84 148.848C484.84 150.837 484.05 152.744 482.644 154.151C481.238 155.557 479.33 156.347 477.342 156.347C475.353 156.347 473.446 155.557 472.039 154.151C470.633 152.744 469.843 150.837 469.843 148.848C469.843 146.86 470.633 144.953 472.039 143.546C473.446 142.14 475.353 141.35 477.342 141.35C479.33 141.35 481.238 142.14 482.644 143.546C484.05 144.953 484.84 146.86 484.84 148.848Z" fill="white" stroke="white" stroke-width="1.24393" stroke-linecap="round" stroke-linejoin="round"/>
<path d="M443.518 488.605C443.518 490.593 442.728 492.501 441.322 493.907C439.916 495.313 438.009 496.103 436.02 496.103C434.031 496.103 432.124 495.313 430.718 493.907C429.312 492.501 428.521 490.593 428.521 488.605C428.521 486.616 429.312 484.709 430.718 483.303C432.124 481.896 434.031 481.106 436.02 481.106C438.009 481.106 439.916 481.896 441.322 483.303C442.728 484.709 443.518 486.616 443.518 488.605Z" fill="white" stroke="white" stroke-width="1.24393" stroke-linecap="round" stroke-linejoin="round"/>
<path d="M420.562 699.805C420.562 701.793 419.772 703.701 418.365 705.107C416.959 706.513 415.052 707.303 413.063 707.303C412.079 707.303 411.104 707.109 410.194 706.732C409.284 706.355 408.457 705.803 407.761 705.107C407.065 704.411 406.513 703.584 406.136 702.674C405.759 701.764 405.565 700.789 405.565 699.805C405.565 698.82 405.759 697.845 406.136 696.935C406.513 696.025 407.065 695.199 407.761 694.502C408.457 693.806 409.284 693.254 410.194 692.877C411.104 692.5 412.079 692.306 413.063 692.306C415.052 692.306 416.959 693.096 418.365 694.502C419.772 695.909 420.562 697.816 420.562 699.805Z" fill="white" stroke="white" stroke-width="1.24393" stroke-linecap="round" stroke-linejoin="round"/>
<path d="M795.518 682.97C795.518 684.959 794.728 686.866 793.322 688.272C791.916 689.678 790.008 690.468 788.02 690.468C786.031 690.468 784.124 689.678 782.718 688.272C781.311 686.866 780.521 684.959 780.521 682.97C780.521 680.981 781.311 679.074 782.718 677.668C784.124 676.262 786.031 675.472 788.02 675.472C790.008 675.472 791.916 676.262 793.322 677.668C794.728 679.074 795.518 680.981 795.518 682.97Z" fill="white" stroke="white" stroke-width="1.24393" stroke-linecap="round" stroke-linejoin="round"/>
<path d="M688.387 540.64C688.387 542.628 687.597 544.535 686.191 545.942C684.785 547.348 682.878 548.138 680.889 548.138C678.9 548.138 676.993 547.348 675.587 545.942C674.181 544.535 673.391 542.628 673.391 540.64C673.391 538.651 674.181 536.744 675.587 535.337C676.993 533.931 678.9 533.141 680.889 533.141C682.878 533.141 684.785 533.931 686.191 535.337C687.597 536.744 688.387 538.651 688.387 540.64Z" fill="white" stroke="white" stroke-width="1.24393" stroke-linecap="round" stroke-linejoin="round"/>
<path d="M1055.69 666.135C1055.69 668.124 1054.9 670.031 1053.5 671.437C1052.09 672.844 1050.18 673.633 1048.19 673.633C1047.21 673.633 1046.23 673.44 1045.32 673.063C1044.41 672.686 1043.59 672.134 1042.89 671.437C1042.19 670.741 1041.64 669.914 1041.27 669.005C1040.89 668.095 1040.69 667.12 1040.69 666.135C1040.69 665.15 1040.89 664.175 1041.27 663.266C1041.64 662.356 1042.19 661.529 1042.89 660.833C1043.59 660.137 1044.41 659.584 1045.32 659.208C1046.23 658.831 1047.21 658.637 1048.19 658.637C1050.18 658.637 1052.09 659.427 1053.5 660.833C1054.9 662.239 1055.69 664.146 1055.69 666.135Z" fill="white" stroke="white" stroke-width="1.24393" stroke-linecap="round" stroke-linejoin="round"/>
<path d="M948.561 366.17C948.561 368.159 947.771 370.066 946.365 371.472C944.959 372.878 943.051 373.668 941.063 373.668C939.074 373.668 937.167 372.878 935.761 371.472C934.354 370.066 933.564 368.159 933.564 366.17C933.564 364.181 934.354 362.274 935.761 360.868C937.167 359.462 939.074 358.672 941.063 358.672C943.051 358.672 944.959 359.462 946.365 360.868C947.771 362.274 948.561 364.181 948.561 366.17Z" fill="white" stroke="white" stroke-width="1.24393" stroke-linecap="round" stroke-linejoin="round"/>
<path d="M1178.13 231.492C1178.13 233.481 1177.34 235.388 1175.93 236.794C1174.52 238.2 1172.62 238.99 1170.63 238.99C1168.64 238.99 1166.73 238.2 1165.33 236.794C1163.92 235.388 1163.13 233.481 1163.13 231.492C1163.13 229.503 1163.92 227.596 1165.33 226.19C1166.73 224.784 1168.64 223.994 1170.63 223.994C1172.62 223.994 1174.52 224.784 1175.93 226.19C1177.34 227.596 1178.13 229.503 1178.13 231.492Z" fill="white" stroke="white" stroke-width="1.24393" stroke-linecap="round" stroke-linejoin="round"/>
<path d="M1104.67 64.6746C1104.67 66.6633 1103.88 68.5705 1102.47 69.9768C1101.06 71.383 1099.16 72.173 1097.17 72.173C1095.18 72.173 1093.27 71.383 1091.87 69.9768C1090.46 68.5705 1089.67 66.6633 1089.67 64.6746C1089.67 62.6859 1090.46 60.7787 1091.87 59.3725C1093.27 57.9663 1095.18 57.1763 1097.17 57.1763C1099.16 57.1763 1101.06 57.9663 1102.47 59.3725C1103.88 60.7787 1104.67 62.6859 1104.67 64.6746Z" fill="white" stroke="white" stroke-width="1.24393" stroke-linecap="round" stroke-linejoin="round"/>
<path d="M855.205 86.1007C855.205 88.0894 854.415 89.9966 853.008 91.4028C851.602 92.8091 849.695 93.5991 847.706 93.5991C845.718 93.5991 843.81 92.8091 842.404 91.4028C840.998 89.9966 840.208 88.0894 840.208 86.1007C840.208 84.112 840.998 82.2048 842.404 80.7986C843.81 79.3924 845.718 78.6024 847.706 78.6024C849.695 78.6024 851.602 79.3924 853.008 80.7986C854.415 82.2048 855.205 84.112 855.205 86.1007Z" fill="white" stroke="white" stroke-width="1.24393" stroke-linecap="round" stroke-linejoin="round"/>
<path fill-rule="evenodd" clip-rule="evenodd" d="M688.811 384.097L449.794 332.5L688.811 384.097Z" fill="white"/>
<path d="M688.811 384.097L449.794 332.5" stroke="white" stroke-width="3"/>
<path fill-rule="evenodd" clip-rule="evenodd" d="M688.811 384.097L436.02 488.605L688.811 384.097Z" fill="white"/>
<path d="M688.811 384.097L436.02 488.605" stroke="white" stroke-width="3"/>
<path fill-rule="evenodd" clip-rule="evenodd" d="M593.655 637.057L436.02 488.605L593.655 637.057Z" fill="white"/>
<path d="M593.655 637.057L436.02 488.605" stroke="white" stroke-width="3"/>
<path fill-rule="evenodd" clip-rule="evenodd" d="M413.063 699.805L436.02 488.605L413.063 699.805Z" fill="white"/>
<path d="M413.063 699.805L436.02 488.605" stroke="white" stroke-width="3"/>
<path fill-rule="evenodd" clip-rule="evenodd" d="M413.063 699.805L211.046 670.726L413.063 699.805Z" fill="white"/>
<path d="M413.063 699.805L211.046 670.726" stroke="white" stroke-width="3"/>
<path fill-rule="evenodd" clip-rule="evenodd" d="M266.142 499.318L211.046 670.726L266.142 499.318Z" fill="white"/>
<path d="M266.142 499.318L211.046 670.726" stroke="white" stroke-width="3"/>
<path fill-rule="evenodd" clip-rule="evenodd" d="M125.342 562.066L211.046 670.726L125.342 562.066Z" fill="white"/>
<path d="M125.342 562.066L211.046 670.726" stroke="white" stroke-width="3"/>
<path fill-rule="evenodd" clip-rule="evenodd" d="M70.2461 715.109L211.046 670.726L70.2461 715.109Z" fill="white"/>
<path d="M70.2461 715.109L211.046 670.726" stroke="white" stroke-width="3"/>
<path fill-rule="evenodd" clip-rule="evenodd" d="M266.142 499.318L159.011 393.718L266.142 499.318Z" fill="white"/>
<path d="M266.142 499.318L159.011 393.718" stroke="white" stroke-width="3"/>
<path fill-rule="evenodd" clip-rule="evenodd" d="M266.142 499.318L376.952 392.232L266.142 499.318Z" fill="white"/>
<path d="M266.142 499.318L376.952 392.232" stroke="white" stroke-width="3"/>
<path fill-rule="evenodd" clip-rule="evenodd" d="M370.649 245.578L376.952 392.232L370.649 245.578Z" fill="white"/>
<path d="M370.649 245.578L376.952 392.232" stroke="white" stroke-width="3"/>
<path fill-rule="evenodd" clip-rule="evenodd" d="M266.142 499.318L120.75 242.205L266.142 499.318Z" fill="white"/>
<path d="M266.142 499.318L120.75 242.205" stroke="white" stroke-width="3"/>
<path fill-rule="evenodd" clip-rule="evenodd" d="M266.142 499.318L413.063 699.805L266.142 499.318Z" fill="white"/>
<path d="M266.142 499.318L413.063 699.805" stroke="white" stroke-width="3"/>
<path fill-rule="evenodd" clip-rule="evenodd" d="M266.142 499.318L436.02 488.605L266.142 499.318Z" fill="white"/>
<path d="M266.142 499.318L436.02 488.605" stroke="white" stroke-width="3"/>
<path fill-rule="evenodd" clip-rule="evenodd" d="M195.742 125.892L376.952 392.232L195.742 125.892Z" fill="white"/>
<path d="M195.742 125.892L376.952 392.232" stroke="white" stroke-width="3"/>
<path fill-rule="evenodd" clip-rule="evenodd" d="M195.742 125.892L359.498 50.9007L195.742 125.892Z" fill="white"/>
<path d="M195.742 125.892L359.498 50.9007" stroke="white" stroke-width="3"/>
<path fill-rule="evenodd" clip-rule="evenodd" d="M477.341 148.848L359.498 50.9007L477.341 148.848Z" fill="white"/>
<path d="M477.341 148.848L359.498 50.9007" stroke="white" stroke-width="3"/>
<path fill-rule="evenodd" clip-rule="evenodd" d="M477.341 148.848L630.385 87.6311L477.341 148.848Z" fill="white"/>
<path d="M477.341 148.848L630.385 87.6311" stroke="white" stroke-width="3"/>
<path fill-rule="evenodd" clip-rule="evenodd" d="M740.576 233.022L630.385 87.6311L740.576 233.022Z" fill="white"/>
<path d="M740.576 233.022L630.385 87.6311" stroke="white" stroke-width="3"/>
<path fill-rule="evenodd" clip-rule="evenodd" d="M740.576 233.022L974.733 171.805L740.576 233.022Z" fill="white"/>
<path d="M740.576 233.022L974.733 171.805" stroke="white" stroke-width="3"/>
<path fill-rule="evenodd" clip-rule="evenodd" d="M847.707 86.1007L974.733 171.805L847.707 86.1007Z" fill="white"/>
<path d="M847.707 86.1007L974.733 171.805" stroke="white" stroke-width="3"/>
<path fill-rule="evenodd" clip-rule="evenodd" d="M1097.17 64.6746L974.732 171.805L1097.17 64.6746Z" fill="white"/>
<path d="M1097.17 64.6746L974.732 171.805" stroke="white" stroke-width="3"/>
<path fill-rule="evenodd" clip-rule="evenodd" d="M1170.63 231.492L974.732 171.805L1170.63 231.492Z" fill="white"/>
<path d="M1170.63 231.492L974.732 171.805" stroke="white" stroke-width="3"/>
<path fill-rule="evenodd" clip-rule="evenodd" d="M941.063 366.17L974.733 171.805L941.063 366.17Z" fill="white"/>
<path d="M941.063 366.17L974.733 171.805" stroke="white" stroke-width="3"/>
<path fill-rule="evenodd" clip-rule="evenodd" d="M941.063 366.17L1109.41 435.04L941.063 366.17Z" fill="white"/>
<path d="M941.063 366.17L1109.41 435.04" stroke="white" stroke-width="3"/>
<path fill-rule="evenodd" clip-rule="evenodd" d="M882.906 534.518L1109.41 435.04L882.906 534.518Z" fill="white"/>
<path d="M882.906 534.518L1109.41 435.04" stroke="white" stroke-width="3"/>
<path fill-rule="evenodd" clip-rule="evenodd" d="M1048.19 666.135L1109.41 435.04L1048.19 666.135Z" fill="white"/>
<path d="M1048.19 666.135L1109.41 435.04" stroke="white" stroke-width="3"/>
<path fill-rule="evenodd" clip-rule="evenodd" d="M882.906 534.518L680.889 540.64L882.906 534.518Z" fill="white"/>
<path d="M882.906 534.518L680.889 540.64" stroke="white" stroke-width="3"/>
<path fill-rule="evenodd" clip-rule="evenodd" d="M788.02 682.97L680.889 540.64L788.02 682.97Z" fill="white"/>
<path d="M788.02 682.97L680.889 540.64" stroke="white" stroke-width="3"/>
<path fill-rule="evenodd" clip-rule="evenodd" d="M593.654 637.057L680.889 540.64L593.654 637.057Z" fill="white"/>
<path d="M593.654 637.057L680.889 540.64" stroke="white" stroke-width="3"/>
<path d="M62.4401 83.0398C62.4401 85.0285 61.6501 86.9358 60.2438 88.342C58.8376 89.7482 56.9304 90.5382 54.9417 90.5382C52.953 90.5382 51.0458 89.7482 49.6396 88.342C48.2334 86.9358 47.4434 85.0285 47.4434 83.0398C47.4434 81.0512 48.2334 79.1439 49.6396 77.7377C51.0458 76.3315 52.953 75.5415 54.9417 75.5415C56.9304 75.5415 58.8376 76.3315 60.2438 77.7377C61.6501 79.1439 62.4401 81.0512 62.4401 83.0398Z" fill="white" stroke="white" stroke-width="1.24393" stroke-linecap="round" stroke-linejoin="round"/>
<path d="M164.979 12.6398C164.979 14.6285 164.189 16.5358 162.783 17.942C161.377 19.3482 159.469 20.1382 157.481 20.1382C155.492 20.1382 153.585 19.3482 152.179 17.942C150.772 16.5358 149.982 14.6285 149.982 12.6398C149.982 10.6511 150.772 8.74391 152.179 7.33769C153.585 5.93148 155.492 5.14148 157.481 5.14148C159.469 5.14148 161.377 5.93148 162.783 7.33769C164.189 8.74391 164.979 10.6511 164.979 12.6398Z" fill="white" stroke="white" stroke-width="1.24393" stroke-linecap="round" stroke-linejoin="round"/>
<path d="M62.4401 367.701C62.4401 369.689 61.6501 371.596 60.2438 373.003C58.8376 374.409 56.9304 375.199 54.9417 375.199C52.953 375.199 51.0458 374.409 49.6396 373.003C48.2334 371.596 47.4434 369.689 47.4434 367.701C47.4434 365.712 48.2334 363.805 49.6396 362.398C51.0458 360.992 52.953 360.202 54.9417 360.202C56.9304 360.202 58.8376 360.992 60.2438 362.398C61.6501 363.805 62.4401 365.712 62.4401 367.701Z" fill="white" stroke="white" stroke-width="1.24393" stroke-linecap="round" stroke-linejoin="round"/>
<path d="M14.9967 252.918C14.9967 254.907 14.2067 256.814 12.8005 258.22C11.3943 259.626 9.48704 260.416 7.49835 260.416C5.50967 260.416 3.60243 259.626 2.19622 258.22C0.790004 256.814 8.35272e-07 254.907 0 252.918C8.35272e-07 250.929 0.790004 249.022 2.19622 247.616C3.60243 246.21 5.50967 245.42 7.49835 245.42C9.48704 245.42 11.3943 246.21 12.8005 247.616C14.2067 249.022 14.9967 250.929 14.9967 252.918Z" fill="white" stroke="white" stroke-width="1.24393" stroke-linecap="round" stroke-linejoin="round"/>
<path d="M105.292 464.118C105.292 466.106 104.502 468.014 103.096 469.42C101.69 470.826 99.7825 471.616 97.7938 471.616C95.8051 471.616 93.8979 470.826 92.4916 469.42C91.0854 468.014 90.2954 466.106 90.2954 464.118C90.2954 462.129 91.0854 460.222 92.4916 458.816C93.8979 457.409 95.8051 456.619 97.7938 456.619C99.7825 456.619 101.69 457.409 103.096 458.816C104.502 460.222 105.292 462.129 105.292 464.118Z" fill="white" stroke="white" stroke-width="1.24393" stroke-linecap="round" stroke-linejoin="round"/>
<path d="M1254.71 358.125C1254.71 360.113 1253.92 362.021 1252.52 363.427C1251.11 364.833 1249.2 365.623 1247.22 365.623C1246.23 365.623 1245.26 365.429 1244.35 365.052C1243.44 364.675 1242.61 364.123 1241.91 363.427C1241.22 362.731 1240.66 361.904 1240.29 360.994C1239.91 360.084 1239.72 359.109 1239.72 358.125C1239.72 357.14 1239.91 356.165 1240.29 355.255C1240.66 354.345 1241.22 353.519 1241.91 352.823C1242.61 352.126 1243.44 351.574 1244.35 351.197C1245.26 350.82 1246.23 350.626 1247.22 350.626C1249.2 350.626 1251.11 351.416 1252.52 352.823C1253.92 354.229 1254.71 356.136 1254.71 358.125Z" fill="white" stroke="white" stroke-width="1.24393" stroke-linecap="round" stroke-linejoin="round"/>
<path d="M1269.86 516.123C1269.86 518.112 1269.07 520.019 1267.67 521.425C1266.26 522.831 1264.35 523.621 1262.37 523.621C1260.38 523.621 1258.47 522.831 1257.06 521.425C1255.66 520.019 1254.87 518.112 1254.87 516.123C1254.87 514.134 1255.66 512.227 1257.06 510.821C1258.47 509.415 1260.38 508.625 1262.37 508.625C1264.35 508.625 1266.26 509.415 1267.67 510.821C1269.07 512.227 1269.86 514.134 1269.86 516.123Z" fill="white" stroke="white" stroke-width="1.24393" stroke-linecap="round" stroke-linejoin="round"/>
<path d="M878.115 715.244C878.115 717.233 877.325 719.14 875.919 720.546C874.512 721.953 872.605 722.743 870.616 722.743C868.628 722.743 866.721 721.953 865.314 720.546C863.908 719.14 863.118 717.233 863.118 715.244C863.118 714.259 863.312 713.284 863.689 712.375C864.066 711.465 864.618 710.638 865.314 709.942C866.011 709.246 866.837 708.693 867.747 708.317C868.657 707.94 869.632 707.746 870.616 707.746C871.601 707.746 872.576 707.94 873.486 708.317C874.396 708.693 875.222 709.246 875.919 709.942C876.615 710.638 877.167 711.465 877.544 712.375C877.921 713.284 878.115 714.259 878.115 715.244Z" fill="white" stroke="white" stroke-width="1.24393" stroke-linecap="round" stroke-linejoin="round"/>
<path d="M988.497 730.395C988.497 732.383 987.707 734.291 986.301 735.697C984.895 737.103 982.987 737.893 980.999 737.893C979.01 737.893 977.103 737.103 975.697 735.697C974.29 734.291 973.5 732.383 973.5 730.395C973.5 728.406 974.29 726.499 975.697 725.093C977.103 723.686 979.01 722.896 980.999 722.896C982.987 722.896 984.895 723.686 986.301 725.093C987.707 726.499 988.497 728.406 988.497 730.395Z" fill="white" stroke="white" stroke-width="1.24393" stroke-linecap="round" stroke-linejoin="round"/>
<path fill-rule="evenodd" clip-rule="evenodd" d="M195.742 125.892L157.481 12.6399L195.742 125.892Z" fill="white"/>
<path d="M195.742 125.892L157.481 12.6399" stroke="white" stroke-width="3"/>
<path fill-rule="evenodd" clip-rule="evenodd" d="M195.742 125.892L54.9419 83.0398L195.742 125.892Z" fill="white"/>
<path d="M195.742 125.892L54.9419 83.0398" stroke="white" stroke-width="3"/>
<path fill-rule="evenodd" clip-rule="evenodd" d="M54.9419 367.701L120.751 242.205L54.9419 367.701Z" fill="white"/>
<path d="M54.9419 367.701L120.751 242.205" stroke="white" stroke-width="3"/>
<path fill-rule="evenodd" clip-rule="evenodd" d="M7.49854 252.918L120.751 242.205L7.49854 252.918Z" fill="white"/>
<path d="M7.49854 252.918L120.751 242.205" stroke="white" stroke-width="3"/>
<path fill-rule="evenodd" clip-rule="evenodd" d="M266.142 499.318L97.7939 464.118L266.142 499.318Z" fill="white"/>
<path d="M266.142 499.318L97.7939 464.118" stroke="white" stroke-width="3"/>
<path fill-rule="evenodd" clip-rule="evenodd" d="M941.063 366.17L740.576 233.022L941.063 366.17Z" fill="white"/>
<path d="M941.063 366.17L740.576 233.022" stroke="white" stroke-width="3"/>
<path fill-rule="evenodd" clip-rule="evenodd" d="M941.063 366.17L882.906 534.518L941.063 366.17Z" fill="white"/>
<path d="M941.063 366.17L882.906 534.518" stroke="white" stroke-width="3"/>
<path fill-rule="evenodd" clip-rule="evenodd" d="M870.617 715.244L882.907 534.518L870.617 715.244Z" fill="white"/>
<path d="M870.617 715.244L882.907 534.518" stroke="white" stroke-width="3"/>
<path fill-rule="evenodd" clip-rule="evenodd" d="M980.999 730.395L882.907 534.518L980.999 730.395Z" fill="white"/>
<path d="M980.999 730.395L882.907 534.518" stroke="white" stroke-width="3"/>
<path fill-rule="evenodd" clip-rule="evenodd" d="M1247.22 358.125L1109.41 435.04L1247.22 358.125Z" fill="white"/>
<path d="M1247.22 358.125L1109.41 435.04" stroke="white" stroke-width="3"/>
<path fill-rule="evenodd" clip-rule="evenodd" d="M1262.37 516.123L1109.41 435.04L1262.37 516.123Z" fill="white"/>
<path d="M1262.37 516.123L1109.41 435.04" stroke="white" stroke-width="3"/>
<path fill-rule="evenodd" clip-rule="evenodd" d="M370.649 245.578L449.794 332.501L370.649 245.578Z" fill="white"/>
<path d="M370.649 245.578L449.794 332.501" stroke="white" stroke-width="3"/>
<path fill-rule="evenodd" clip-rule="evenodd" d="M370.649 245.578L477.342 148.848L370.649 245.578Z" fill="white"/>
<path d="M370.649 245.578L477.342 148.848" stroke="white" stroke-width="3"/>
<path fill-rule="evenodd" clip-rule="evenodd" d="M370.649 245.578L195.742 125.892L370.649 245.578Z" fill="white"/>
<path d="M370.649 245.578L195.742 125.892" stroke="white" stroke-width="3"/>
<path d="M1269.95 133.544C1269.95 137.562 1268.36 141.416 1265.51 144.257C1262.67 147.098 1258.82 148.695 1254.8 148.695C1252.81 148.695 1250.84 148.303 1249 147.541C1247.17 146.78 1245.5 145.664 1244.09 144.257C1242.68 142.85 1241.57 141.18 1240.8 139.342C1240.04 137.504 1239.65 135.534 1239.65 133.544C1239.65 131.555 1240.04 129.584 1240.8 127.746C1241.57 125.908 1242.68 124.238 1244.09 122.831C1245.5 121.424 1247.17 120.308 1249 119.547C1250.84 118.785 1252.81 118.394 1254.8 118.394C1258.82 118.394 1262.67 119.99 1265.51 122.831C1268.36 125.672 1269.95 129.526 1269.95 133.544Z" fill="white" stroke="white" stroke-width="2.51339" stroke-linecap="round" stroke-linejoin="round"/>
<path d="M1234.75 646.239C1234.75 648.229 1234.36 650.199 1233.6 652.037C1232.84 653.875 1231.72 655.546 1230.31 656.953C1228.91 658.359 1227.24 659.475 1225.4 660.237C1223.56 660.998 1221.59 661.39 1219.6 661.39C1215.58 661.39 1211.73 659.794 1208.89 656.953C1206.05 654.111 1204.45 650.258 1204.45 646.239C1204.45 642.221 1206.05 638.368 1208.89 635.526C1211.73 632.685 1215.58 631.089 1219.6 631.089C1223.62 631.089 1227.47 632.685 1230.31 635.526C1233.16 638.368 1234.75 642.221 1234.75 646.239Z" fill="white" stroke="white" stroke-width="2.51339" stroke-linecap="round" stroke-linejoin="round"/>
<path fill-rule="evenodd" clip-rule="evenodd" d="M630.385 87.6311L449.794 332.5L630.385 87.6311Z" fill="white"/>
<path d="M630.385 87.6311L449.794 332.5" stroke="white" stroke-width="3"/>
<path fill-rule="evenodd" clip-rule="evenodd" d="M477.342 148.848L449.794 332.5L477.342 148.848Z" fill="white"/>
<path d="M477.342 148.848L449.794 332.5" stroke="white" stroke-width="3"/>
<path fill-rule="evenodd" clip-rule="evenodd" d="M740.576 233.022L449.794 332.5L740.576 233.022Z" fill="white"/>
<path d="M740.576 233.022L449.794 332.5" stroke="white" stroke-width="3"/>
<path fill-rule="evenodd" clip-rule="evenodd" d="M688.81 384.097L680.889 540.64L688.81 384.097Z" fill="white"/>
<path d="M688.81 384.097L680.889 540.64" stroke="white" stroke-width="3"/>
<path fill-rule="evenodd" clip-rule="evenodd" d="M941.063 366.17L688.811 384.097L941.063 366.17Z" fill="white"/>
<path d="M941.063 366.17L688.811 384.097" stroke="white" stroke-width="3"/>
<path fill-rule="evenodd" clip-rule="evenodd" d="M740.576 233.022L688.811 384.097L740.576 233.022Z" fill="white"/>
<path d="M740.576 233.022L688.811 384.097" stroke="white" stroke-width="3"/>
<path d="M1269.86 20.4846C1269.86 22.4732 1269.07 24.3805 1267.67 25.7867C1266.26 27.1929 1264.35 27.9829 1262.37 27.9829C1260.38 27.9829 1258.47 27.1929 1257.06 25.7867C1255.66 24.3805 1254.87 22.4732 1254.87 20.4846C1254.87 18.4959 1255.66 16.5886 1257.06 15.1824C1258.47 13.7762 1260.38 12.9862 1262.37 12.9862C1264.35 12.9862 1266.26 13.7762 1267.67 15.1824C1269.07 16.5886 1269.86 18.4959 1269.86 20.4846Z" fill="white" stroke="white" stroke-width="1.24393" stroke-linecap="round" stroke-linejoin="round"/>
<path d="M1377 114.634C1377 116.623 1376.21 118.53 1374.8 119.936C1373.4 121.343 1371.49 122.133 1369.5 122.133C1367.51 122.133 1365.61 121.343 1364.2 119.936C1362.79 118.53 1362 116.623 1362 114.634C1362 112.646 1362.79 110.738 1364.2 109.332C1365.61 107.926 1367.51 107.136 1369.5 107.136C1371.49 107.136 1373.4 107.926 1374.8 109.332C1376.21 110.738 1377 112.646 1377 114.634Z" fill="white" stroke="white" stroke-width="1.24393" stroke-linecap="round" stroke-linejoin="round"/>
<path d="M1351.03 601.615C1351.03 603.604 1350.24 605.511 1348.83 606.917C1347.43 608.324 1345.52 609.114 1343.53 609.114C1341.54 609.114 1339.63 608.324 1338.23 606.917C1336.82 605.511 1336.03 603.604 1336.03 601.615C1336.03 599.626 1336.82 597.719 1338.23 596.313C1339.63 594.907 1341.54 594.117 1343.53 594.117C1345.52 594.117 1347.43 594.907 1348.83 596.313C1350.24 597.719 1351.03 599.626 1351.03 601.615Z" fill="white" stroke="white" stroke-width="1.24393" stroke-linecap="round" stroke-linejoin="round"/>
<path d="M1168.14 760.696C1168.14 762.684 1167.35 764.592 1165.94 765.998C1164.54 767.404 1162.63 768.194 1160.64 768.194C1158.65 768.194 1156.74 767.404 1155.34 765.998C1153.93 764.592 1153.14 762.684 1153.14 760.696C1153.14 759.711 1153.34 758.736 1153.71 757.826C1154.09 756.917 1154.64 756.09 1155.34 755.394C1156.04 754.697 1156.86 754.145 1157.77 753.768C1158.68 753.391 1159.66 753.197 1160.64 753.197C1161.63 753.197 1162.6 753.391 1163.51 753.768C1164.42 754.145 1165.25 754.697 1165.94 755.394C1166.64 756.09 1167.19 756.917 1167.57 757.826C1167.95 758.736 1168.14 759.711 1168.14 760.696Z" fill="white" stroke="white" stroke-width="1.24393" stroke-linecap="round" stroke-linejoin="round"/>
<path d="M1312.07 747.71C1312.07 749.698 1311.28 751.606 1309.87 753.012C1308.47 754.418 1306.56 755.208 1304.57 755.208C1302.58 755.208 1300.67 754.418 1299.27 753.012C1297.86 751.606 1297.07 749.698 1297.07 747.71C1297.07 745.721 1297.86 743.814 1299.27 742.407C1300.67 741.001 1302.58 740.211 1304.57 740.211C1306.56 740.211 1308.47 741.001 1309.87 742.407C1311.28 743.814 1312.07 745.721 1312.07 747.71Z" fill="white" stroke="white" stroke-width="1.24393" stroke-linecap="round" stroke-linejoin="round"/>
<path d="M1102.13 312.673C1102.13 314.662 1101.34 316.569 1099.93 317.975C1098.52 319.382 1096.62 320.171 1094.63 320.171C1092.64 320.171 1090.73 319.382 1089.33 317.975C1087.92 316.569 1087.13 314.662 1087.13 312.673C1087.13 310.684 1087.92 308.777 1089.33 307.371C1090.73 305.965 1092.64 305.175 1094.63 305.175C1096.62 305.175 1098.52 305.965 1099.93 307.371C1101.34 308.777 1102.13 310.684 1102.13 312.673Z" fill="white" stroke="white" stroke-width="1.24393" stroke-linecap="round" stroke-linejoin="round"/>
<path d="M1317.48 279.126C1317.48 281.114 1316.69 283.021 1315.28 284.428C1313.88 285.834 1311.97 286.624 1309.98 286.624C1307.99 286.624 1306.09 285.834 1304.68 284.428C1303.27 283.021 1302.48 281.114 1302.48 279.126C1302.48 277.137 1303.27 275.23 1304.68 273.823C1306.09 272.417 1307.99 271.627 1309.98 271.627C1311.97 271.627 1313.88 272.417 1315.28 273.823C1316.69 275.23 1317.48 277.137 1317.48 279.126Z" fill="white" stroke="white" stroke-width="1.24393" stroke-linecap="round" stroke-linejoin="round"/>
<path fill-rule="evenodd" clip-rule="evenodd" d="M1170.63 231.492L1254.8 133.544L1170.63 231.492Z" fill="white"/>
<path d="M1170.63 231.492L1254.8 133.544" stroke="white" stroke-width="3"/>
<path fill-rule="evenodd" clip-rule="evenodd" d="M1262.37 20.4845L1254.8 133.544L1262.37 20.4845Z" fill="white"/>
<path d="M1262.37 20.4845L1254.8 133.544" stroke="white" stroke-width="3"/>
<path fill-rule="evenodd" clip-rule="evenodd" d="M1369.5 114.634L1254.8 133.544L1369.5 114.634Z" fill="white"/>
<path d="M1369.5 114.634L1254.8 133.544" stroke="white" stroke-width="3"/>
<path fill-rule="evenodd" clip-rule="evenodd" d="M1309.98 279.126L1254.8 133.544L1309.98 279.126Z" fill="white"/>
<path d="M1309.98 279.126L1254.8 133.544" stroke="white" stroke-width="3"/>
<path fill-rule="evenodd" clip-rule="evenodd" d="M1170.63 231.492L1094.63 312.673L1170.63 231.492Z" fill="white"/>
<path d="M1170.63 231.492L1094.63 312.673" stroke="white" stroke-width="3"/>
<path fill-rule="evenodd" clip-rule="evenodd" d="M1109.41 435.04L1094.63 312.673L1109.41 435.04Z" fill="white"/>
<path d="M1109.41 435.04L1094.63 312.673" stroke="white" stroke-width="3"/>
<path fill-rule="evenodd" clip-rule="evenodd" d="M941.063 366.17L1094.63 312.673L941.063 366.17Z" fill="white"/>
<path d="M941.063 366.17L1094.63 312.673" stroke="white" stroke-width="3"/>
<path fill-rule="evenodd" clip-rule="evenodd" d="M974.732 171.805L1094.63 312.673L974.732 171.805Z" fill="white"/>
<path d="M974.732 171.805L1094.63 312.673" stroke="white" stroke-width="3"/>
<path fill-rule="evenodd" clip-rule="evenodd" d="M1048.19 666.135L1219.6 646.24L1048.19 666.135Z" fill="white"/>
<path d="M1048.19 666.135L1219.6 646.24" stroke="white" stroke-width="3"/>
<path fill-rule="evenodd" clip-rule="evenodd" d="M1048.19 666.135L882.906 534.518L1048.19 666.135Z" fill="white"/>
<path d="M1048.19 666.135L882.906 534.518" stroke="white" stroke-width="3"/>
<path fill-rule="evenodd" clip-rule="evenodd" d="M1262.37 516.123L1219.6 646.239L1262.37 516.123Z" fill="white"/>
<path d="M1262.37 516.123L1219.6 646.239" stroke="white" stroke-width="3"/>
<path fill-rule="evenodd" clip-rule="evenodd" d="M1160.64 760.696L1219.6 646.24L1160.64 760.696Z" fill="white"/>
<path d="M1160.64 760.696L1219.6 646.24" stroke="white" stroke-width="3"/>
<path fill-rule="evenodd" clip-rule="evenodd" d="M1304.57 747.71L1219.6 646.24L1304.57 747.71Z" fill="white"/>
<path d="M1304.57 747.71L1219.6 646.24" stroke="white" stroke-width="3"/>
<path fill-rule="evenodd" clip-rule="evenodd" d="M1343.53 601.615L1219.6 646.239L1343.53 601.615Z" fill="white"/>
<path d="M1343.53 601.615L1219.6 646.239" stroke="white" stroke-width="3"/>
<path d="M542.231 735.77C542.231 737.759 541.441 739.666 540.035 741.072C538.629 742.478 536.721 743.268 534.733 743.268C533.748 743.268 532.773 743.074 531.863 742.697C530.954 742.321 530.127 741.768 529.431 741.072C528.734 740.376 528.182 739.549 527.805 738.639C527.428 737.73 527.234 736.755 527.234 735.77C527.234 734.785 527.428 733.81 527.805 732.9C528.182 731.991 528.734 731.164 529.431 730.468C530.127 729.771 530.954 729.219 531.863 728.842C532.773 728.465 533.748 728.271 534.733 728.271C536.721 728.271 538.629 729.062 540.035 730.468C541.441 731.874 542.231 733.781 542.231 735.77Z" fill="white" stroke="white" stroke-width="1.24393" stroke-linecap="round" stroke-linejoin="round"/>
<path d="M702.162 745.718C702.162 747.706 701.372 749.614 699.966 751.02C698.559 752.426 696.652 753.216 694.663 753.216C692.675 753.216 690.767 752.426 689.361 751.02C687.955 749.614 687.165 747.706 687.165 745.718C687.165 743.729 687.955 741.822 689.361 740.416C690.767 739.009 692.675 738.219 694.663 738.219C696.652 738.219 698.559 739.009 699.966 740.416C701.372 741.822 702.162 743.729 702.162 745.718Z" fill="white" stroke="white" stroke-width="1.24393" stroke-linecap="round" stroke-linejoin="round"/>
<path d="M533.982 7.49835C533.982 9.48704 533.192 11.3943 531.785 12.8005C530.379 14.2067 528.472 14.9967 526.483 14.9967C524.495 14.9967 522.587 14.2067 521.181 12.8005C519.775 11.3943 518.985 9.48704 518.985 7.49835C518.985 5.50967 519.775 3.60243 521.181 2.19622C522.587 0.790007 524.495 8.35272e-07 526.483 0C528.472 8.35272e-07 530.379 0.790007 531.785 2.19622C533.192 3.60243 533.982 5.50967 533.982 7.49835Z" fill="white" stroke="white" stroke-width="1.24393" stroke-linecap="round" stroke-linejoin="round"/>
<path d="M745.746 12.8323C745.746 14.821 744.956 16.7283 743.55 18.1345C742.144 19.5407 740.237 20.3307 738.248 20.3307C736.259 20.3307 734.352 19.5407 732.946 18.1345C731.539 16.7283 730.75 14.821 730.75 12.8323C730.75 10.8436 731.539 8.93641 732.946 7.5302C734.352 6.12399 736.259 5.33399 738.248 5.33398C740.237 5.33399 742.144 6.12399 743.55 7.5302C744.956 8.93641 745.746 10.8436 745.746 12.8323Z" fill="white" stroke="white" stroke-width="1.24393" stroke-linecap="round" stroke-linejoin="round"/>
<path fill-rule="evenodd" clip-rule="evenodd" d="M526.483 7.49829L630.385 87.6311L526.483 7.49829Z" fill="white"/>
<path d="M526.483 7.49829L630.385 87.6311" stroke="white" stroke-width="3"/>
<path fill-rule="evenodd" clip-rule="evenodd" d="M738.248 12.8323L630.385 87.6312L738.248 12.8323Z" fill="white"/>
<path d="M738.248 12.8323L630.385 87.6312" stroke="white" stroke-width="3"/>
<path fill-rule="evenodd" clip-rule="evenodd" d="M593.655 637.057L534.733 735.77L593.655 637.057Z" fill="white"/>
<path d="M593.655 637.057L534.733 735.77" stroke="white" stroke-width="3"/>
<path fill-rule="evenodd" clip-rule="evenodd" d="M593.654 637.057L694.663 745.718L593.654 637.057Z" fill="white"/>
<path d="M593.654 637.057L694.663 745.718" stroke="white" stroke-width="3"/>
<path fill-rule="evenodd" clip-rule="evenodd" d="M436.02 488.605L680.889 540.64L436.02 488.605Z" fill="white"/>
<path d="M436.02 488.605L680.889 540.64" stroke="white" stroke-width="3"/>
<path fill-rule="evenodd" clip-rule="evenodd" d="M376.952 392.232L436.02 488.605L376.952 392.232Z" fill="white"/>
<path d="M376.952 392.232L436.02 488.605" stroke="white" stroke-width="3"/>
<path fill-rule="evenodd" clip-rule="evenodd" d="M449.794 332.5L436.02 488.605L449.794 332.5Z" fill="white"/>
<path d="M449.794 332.5L436.02 488.605" stroke="white" stroke-width="3"/>
</mask>
<g mask="url(#mask0_51_1289)">
<rect width="1459" height="808" fill="url(#paint0_linear_51_1289)" fill-opacity="0.25"/>
</g>
<defs>
<linearGradient id="paint0_linear_51_1289" x1="335" y1="533" x2="1220.5" y2="171" gradientUnits="userSpaceOnUse">
<stop stop-color="white" stop-opacity="0"/>
<stop offset="0.604" stop-color="white" stop-opacity="0.57"/>
<stop offset="1" stop-color="white" stop-opacity="0"/>
</linearGradient>
</defs>
</svg>
